<?xml version="1.0" encoding="utf-8"?>
<!-- Generator: Adobe Illustrator 19.0.0, SVG Export Plug-In . SVG Version: 6.00 Build 0)  -->
<svg version="1.1" xmlns="http://www.w3.org/2000/svg" xmlns:xlink="http://www.w3.org/1999/xlink" x="0px" y="0px"
	 viewBox="0 0 150 150" style="enable-background:new 0 0 150 150;" xml:space="preserve">
<style type="text/css">
	.st0{opacity:4.000000e-002;stroke:#050706;stroke-width:5;stroke-miterlimit:10;}
	.st1{fill:#A7DFF9;stroke:#000000;stroke-miterlimit:10;}
	.st2{fill:#F2C91E;}
	.st3{fill:none;stroke:#EAA122;stroke-width:3;stroke-miterlimit:10;}
	.st4{fill:#F2C91E;stroke:#EAA122;stroke-width:3;stroke-miterlimit:10;}
	.st5{display:none;}
	.st6{display:inline;fill:none;stroke:#000000;stroke-width:3;stroke-miterlimit:10;}
</style>
<g id="Layer_1">
	<path class="st0" d="M138.3,100.3c-13.1,17.9-33.4,27.4-54,27.6V60.7l44.3,32.4l5.3,3.9v0L138.3,100.3z"/>
	<rect y="0" class="st1" width="150" height="150"/>
	<g>
		<g>
			<g>
				<polygon class="st2" points="75.1,66.5 75.6,75 74.9,83.5 74.4,75 				"/>
				<polygon class="st3" points="75.1,66.5 75.6,75 74.9,83.5 74.4,75 				"/>
			</g>
			<g>
				<polygon class="st2" points="81.7,69.6 75.4,75.4 68.3,80.4 74.6,74.6 				"/>
				<polygon class="st3" points="81.7,69.6 75.4,75.4 68.3,80.4 74.6,74.6 				"/>
			</g>
			<g>
				<polygon class="st2" points="83.3,76.7 74.9,75.6 66.7,73.3 75.1,74.4 				"/>
				<polygon class="st3" points="83.3,76.7 74.9,75.6 66.7,73.3 75.1,74.4 				"/>
			</g>
			<g>
				<polygon class="st2" points="78.8,82.6 74.5,75.3 71.2,67.4 75.5,74.7 				"/>
				<polygon class="st3" points="78.8,82.6 74.5,75.3 71.2,67.4 75.5,74.7 				"/>
			</g>
			<g>
				<polygon class="st2" points="71.5,82.8 74.5,74.8 78.5,67.2 75.5,75.2 				"/>
				<polygon class="st3" points="71.5,82.8 74.5,74.8 78.5,67.2 75.5,75.2 				"/>
			</g>
			<g>
				<polygon class="st2" points="66.8,77.3 74.9,74.4 83.2,72.7 75.1,75.6 				"/>
				<polygon class="st3" points="66.8,77.3 74.9,74.4 83.2,72.7 75.1,75.6 				"/>
			</g>
			<g>
				<polygon class="st2" points="68.2,70.1 75.3,74.5 81.8,79.9 74.7,75.5 				"/>
				<polygon class="st3" points="68.2,70.1 75.3,74.5 81.8,79.9 74.7,75.5 				"/>
			</g>
		</g>
		<g>
			<g>
				<polygon class="st2" points="82.6,65.6 75.6,75.5 67.4,84.4 74.4,74.5 				"/>
				<polygon class="st3" points="82.6,65.6 75.6,75.5 67.4,84.4 74.4,74.5 				"/>
			</g>
			<g>
				<polygon class="st2" points="87.1,75 75,75.8 62.9,75 75,74.2 				"/>
				<polygon class="st3" points="87.1,75 75,75.8 62.9,75 75,74.2 				"/>
			</g>
			<g>
				<polygon class="st2" points="82.6,84.4 74.4,75.5 67.4,65.6 75.6,74.5 				"/>
				<polygon class="st3" points="82.6,84.4 74.4,75.5 67.4,65.6 75.6,74.5 				"/>
			</g>
			<g>
				<polygon class="st2" points="72.5,86.8 74.2,74.8 77.5,63.2 75.8,75.2 				"/>
				<polygon class="st3" points="72.5,86.8 74.2,74.8 77.5,63.2 75.8,75.2 				"/>
			</g>
			<g>
				<polygon class="st2" points="64.2,80.5 74.6,74.3 85.8,69.5 75.4,75.7 				"/>
				<polygon class="st3" points="64.2,80.5 74.6,74.3 85.8,69.5 75.4,75.7 				"/>
			</g>
			<g>
				<polygon class="st2" points="64,70.1 75.3,74.2 86,79.9 74.7,75.8 				"/>
				<polygon class="st3" points="64,70.1 75.3,74.2 86,79.9 74.7,75.8 				"/>
			</g>
			<g>
				<polygon class="st2" points="71.9,63.4 75.8,74.8 78.1,86.6 74.2,75.2 				"/>
				<polygon class="st3" points="71.9,63.4 75.8,74.8 78.1,86.6 74.2,75.2 				"/>
			</g>
		</g>
		<g>
			<g>
				<polygon class="st2" points="91.7,71.4 75.2,76.1 58.3,78.6 74.8,73.9 				"/>
				<polygon class="st3" points="91.7,71.4 75.2,76.1 58.3,78.6 74.8,73.9 				"/>
			</g>
			<g>
				<polygon class="st2" points="88.3,85.8 74.3,75.9 61.7,64.2 75.7,74.1 				"/>
				<polygon class="st3" points="88.3,85.8 74.3,75.9 61.7,64.2 75.7,74.1 				"/>
			</g>
			<g>
				<polygon class="st2" points="75,92.2 73.8,75 75,57.8 76.2,75 				"/>
				<polygon class="st3" points="75,92.2 73.8,75 75,57.8 76.2,75 				"/>
			</g>
			<g>
				<polygon class="st2" points="61.8,85.8 74.3,74.1 88.2,64.2 75.7,75.9 				"/>
				<polygon class="st3" points="61.8,85.8 74.3,74.1 88.2,64.2 75.7,75.9 				"/>
			</g>
			<g>
				<polygon class="st2" points="58.3,71.4 75.2,73.9 91.7,78.6 74.8,76.1 				"/>
				<polygon class="st3" points="58.3,71.4 75.2,73.9 91.7,78.6 74.8,76.1 				"/>
			</g>
			<g>
				<polygon class="st2" points="67.2,59.7 76,74.5 82.8,90.3 74,75.5 				"/>
				<polygon class="st3" points="67.2,59.7 76,74.5 82.8,90.3 74,75.5 				"/>
			</g>
			<g>
				<polygon class="st2" points="81.9,59.3 76.1,75.5 68.1,90.7 73.9,74.5 				"/>
				<polygon class="st3" points="81.9,59.3 76.1,75.5 68.1,90.7 73.9,74.5 				"/>
			</g>
		</g>
		<g>
			<g>
				<polygon class="st2" points="96.4,86 74.2,76.5 53.6,64 75.8,73.5 				"/>
				<polygon class="st3" points="96.4,86 74.2,76.5 53.6,64 75.8,73.5 				"/>
			</g>
			<g>
				<polygon class="st2" points="79.9,99 73.4,75.4 70.1,51 76.6,74.6 				"/>
				<polygon class="st3" points="79.9,99 73.4,75.4 70.1,51 76.6,74.6 				"/>
			</g>
			<g>
				<polygon class="st2" points="59.8,94.1 73.7,74 90.2,55.9 76.3,76 				"/>
				<polygon class="st3" points="59.8,94.1 73.7,74 90.2,55.9 76.3,76 				"/>
			</g>
			<g>
				<polygon class="st2" points="50.9,75.1 75,73.3 99.1,74.9 75,76.7 				"/>
				<polygon class="st3" points="50.9,75.1 75,73.3 99.1,74.9 75,76.7 				"/>
			</g>
			<g>
				<polygon class="st2" points="59.9,56 76.3,73.9 90.1,94 73.7,76.1 				"/>
				<polygon class="st3" points="59.9,56 76.3,73.9 90.1,94 73.7,76.1 				"/>
			</g>
			<g>
				<polygon class="st2" points="80.1,51 76.6,75.3 69.9,99 73.4,74.7 				"/>
				<polygon class="st3" points="80.1,51 76.6,75.3 69.9,99 73.4,74.7 				"/>
			</g>
			<g>
				<polygon class="st2" points="96.5,63.8 75.7,76.5 53.5,86.2 74.3,73.5 				"/>
				<polygon class="st3" points="96.5,63.8 75.7,76.5 53.5,86.2 74.3,73.5 				"/>
			</g>
		</g>
		<g>
			<g>
				<polygon class="st2" points="88.6,106.5 72.9,76 61.4,43.5 77.1,74 				"/>
				<polygon class="st3" points="88.6,106.5 72.9,76 61.4,43.5 77.1,74 				"/>
			</g>
			<g>
				<polygon class="st2" points="59.1,106 72.9,73.9 90.9,44 77.1,76.1 				"/>
				<polygon class="st3" points="59.1,106 72.9,73.9 90.9,44 77.1,76.1 				"/>
			</g>
			<g>
				<polygon class="st2" points="41.4,82.5 74.5,72.7 108.6,67.5 75.5,77.3 				"/>
				<polygon class="st3" points="41.4,82.5 74.5,72.7 108.6,67.5 75.5,77.3 				"/>
			</g>
			<g>
				<polygon class="st2" points="48.6,53.5 76.5,73.2 101.4,96.5 73.5,76.8 				"/>
				<polygon class="st3" points="48.6,53.5 76.5,73.2 101.4,96.5 73.5,76.8 				"/>
			</g>
			<g>
				<polygon class="st2" points="75.3,40.4 77.3,75 74.7,109.6 72.7,75 				"/>
				<polygon class="st3" points="75.3,40.4 77.3,75 74.7,109.6 72.7,75 				"/>
			</g>
			<g>
				<polygon class="st2" points="101.9,52.9 76.5,76.8 48.1,97.1 73.5,73.2 				"/>
				<polygon class="st3" points="101.9,52.9 76.5,76.8 48.1,97.1 73.5,73.2 				"/>
			</g>
			<g>
				<polygon class="st2" points="108.5,81.9 74.5,77.3 41.5,68.1 75.5,72.7 				"/>
				<polygon class="st3" points="108.5,81.9 74.5,77.3 41.5,68.1 75.5,72.7 				"/>
			</g>
		</g>
		<g>
			<g>
				<polygon class="st2" points="62,122.2 71.8,74.2 88,27.8 78.2,75.8 				"/>
				<polygon class="st3" points="62,122.2 71.8,74.2 88,27.8 78.2,75.8 				"/>
			</g>
			<g>
				<polygon class="st2" points="30.1,95.2 73.7,72 119.9,54.8 76.3,78 				"/>
				<polygon class="st3" points="30.1,95.2 73.7,72 119.9,54.8 76.3,78 				"/>
			</g>
			<g>
				<polygon class="st2" points="31.5,53.1 76.5,72 118.5,96.9 73.5,78 				"/>
				<polygon class="st3" points="31.5,53.1 76.5,72 118.5,96.9 73.5,78 				"/>
			</g>
			<g>
				<polygon class="st2" points="65.2,27.3 78.3,74.3 84.8,122.7 71.7,75.7 				"/>
				<polygon class="st3" points="65.2,27.3 78.3,74.3 84.8,122.7 71.7,75.7 				"/>
			</g>
			<g>
				<polygon class="st2" points="106.1,36.8 77.6,77.1 43.9,113.2 72.4,72.9 				"/>
				<polygon class="st3" points="106.1,36.8 77.6,77.1 43.9,113.2 72.4,72.9 				"/>
			</g>
			<g>
				<polygon class="st2" points="124,74.7 75,78.3 26,75.3 75,71.7 				"/>
				<polygon class="st3" points="124,74.7 75,78.3 26,75.3 75,71.7 				"/>
			</g>
			<g>
				<polygon class="st2" points="105.5,112.7 72.4,77.1 44.5,37.3 77.6,72.9 				"/>
				<polygon class="st3" points="105.5,112.7 72.4,77.1 44.5,37.3 77.6,72.9 				"/>
			</g>
		</g>
		<g>
			<g>
				<polygon class="st2" points="18.9,115.8 72.2,71.2 131.1,34.2 77.8,78.8 				"/>
				<polygon class="st3" points="18.9,115.8 72.2,71.2 131.1,34.2 77.8,78.8 				"/>
			</g>
			<g>
				<polygon class="st2" points="8,57.1 76.2,70.4 142,92.9 73.8,79.6 				"/>
				<polygon class="st3" points="8,57.1 76.2,70.4 142,92.9 73.8,79.6 				"/>
			</g>
			<g>
				<polygon class="st2" points="46.8,11.6 79.3,73.1 103.2,138.4 70.7,76.9 				"/>
				<polygon class="st3" points="46.8,11.6 79.3,73.1 103.2,138.4 70.7,76.9 				"/>
			</g>
			<g>
				<polygon class="st2" points="106.5,13.2 79.2,77.1 43.5,136.8 70.8,72.9 				"/>
				<polygon class="st3" points="106.5,13.2 79.2,77.1 43.5,136.8 70.8,72.9 				"/>
			</g>
			<g>
				<polygon class="st2" points="142.8,60.6 76,79.6 7.2,89.4 74,70.4 				"/>
				<polygon class="st3" points="142.8,60.6 76,79.6 7.2,89.4 74,70.4 				"/>
			</g>
			<g>
				<polygon class="st2" points="128.9,118.6 72,78.7 21.1,31.4 78,71.3 				"/>
				<polygon class="st3" points="128.9,118.6 72,78.7 21.1,31.4 78,71.3 				"/>
			</g>
			<g>
				<polygon class="st2" points="75,144.3 70.3,75 75,5.7 79.7,75 				"/>
				<polygon class="st3" points="75,144.3 70.3,75 75,5.7 79.7,75 				"/>
			</g>
		</g>
	</g>
	<circle class="st4" cx="75" cy="75" r="29"/>
</g>
<g id="Layer_2" class="st5">
	<circle class="st6" cx="75" cy="75" r="75"/>
</g>
</svg>
