<?xml version="1.0" encoding="utf-8"?>
<!-- Generator: Adobe Illustrator 19.0.0, SVG Export Plug-In . SVG Version: 6.00 Build 0)  -->
<svg version="1.1" xmlns="http://www.w3.org/2000/svg" xmlns:xlink="http://www.w3.org/1999/xlink" x="0px" y="0px"
	 viewBox="0 0 150 150" style="enable-background:new 0 0 150 150;" xml:space="preserve">
<style type="text/css">
	.st0{fill:#FFF8EB;}
	.st1{fill:#45260F;}
	.st2{fill:#EFD9BF;}
	.st3{fill:#76411B;}
	.st4{fill:#FFF9F5;}
	.st5{display:none;}
	.st6{display:inline;fill:none;stroke:#000000;stroke-miterlimit:10;}
</style>
<g id="Layer_1">
	<rect id="XMLID_90_" class="st0" width="150" height="150"/>
</g>
<g id="Layer_2">
	<g id="XMLID_86_">
		<g id="XMLID_104_">
			<path id="XMLID_113_" class="st1" d="M10.8,99.1c18.1-3.5,36.1-9.4,52.1-18.7c10.4-6.1,20.8-12.2,31.4-18
				c11.9-6.6,24.8-13.8,38.8-13.1c1.1,0.1,5.6-0.9,2.5-1.1c-11.2-0.6-21.8,2.1-31.9,6.8c-13.9,6.4-27,14.7-40.2,22.3
				c-17.2,10-35.6,17.1-55.2,21C5.1,98.9,9.7,99.3,10.8,99.1L10.8,99.1z"/>
		</g>
	</g>
	<g id="XMLID_88_">
		<g id="XMLID_103_">
			<path id="XMLID_117_" class="st1" d="M10.3,86.4c18.3,5.7,39.8,10.3,58.2,2.2c7.2-3.2,12.7-8.8,19.1-13.4
				c11.2-8.1,24.6-11.7,38.3-11.6c2.6,0,4.1-4,0.8-4c-11.6-0.1-23.2,2.3-33.4,7.7C85,71.6,78.7,78.5,70.8,83.2
				C53.7,93.4,31,88.3,13.3,82.8C11.1,82.1,7.6,85.5,10.3,86.4L10.3,86.4z"/>
		</g>
	</g>
	<g id="XMLID_89_">
		<g id="XMLID_105_">
			<path id="XMLID_109_" class="st1" d="M22,104.8c11.9-14.5,26.1-26.7,42.6-35.5c18.1-9.7,38.7-12.5,58.9-9.5c-0.2,0,0.3-5,0-5
				c-20.2-3-40.8-0.2-58.9,9.5C48.1,73.2,33.9,85.4,22,99.8C21.2,100.9,22.8,103.9,22,104.8L22,104.8z"/>
		</g>
	</g>
	<g id="XMLID_87_">
		<g id="XMLID_56_">
			<path id="XMLID_41_" class="st2" d="M42,60.5c8.6,9.6,22,14.4,35.6,11.4C68.3,61.7,54.6,57.8,42,60.5z M42,60.5
				c8.6,9.6,22,14.4,35.6,11.4C68.3,61.7,54.6,57.8,42,60.5z M105.3,46.9C92.7,49.7,81.8,58.8,77.6,72
				C91.1,69.1,101.3,59.2,105.3,46.9z M77.6,72c9.3,10.2,22.9,14.1,35.5,11.4C104.5,73.9,91.1,69.1,77.6,72z M69.7,35.5
				c-3.9,12.3-1.4,26.3,7.9,36.5C81.8,58.8,78.4,45,69.7,35.5z M85.5,108.5c3.9-12.3,1.4-26.3-7.9-36.5
				C73.4,85.2,76.8,98.9,85.5,108.5z M42,60.5c8.6,9.6,22,14.4,35.6,11.4C68.3,61.7,54.6,57.8,42,60.5z M49.9,97.1
				C62.5,94.3,73.4,85.1,77.6,72C64.1,74.9,53.9,84.8,49.9,97.1z"/>
			<path id="XMLID_37_" class="st2" d="M77.6,72c-4.2,13.2-15.1,22.3-27.7,25.1C53.9,84.8,64.1,74.9,77.6,72z"/>
			<path id="XMLID_38_" class="st2" d="M77.6,72c9.3,10.2,11.8,24.2,7.9,36.5C76.8,98.9,73.4,85.2,77.6,72z"/>
			<path id="XMLID_39_" class="st2" d="M77.6,72c13.5-2.9,26.9,1.9,35.5,11.4C100.5,86.1,86.9,82.2,77.6,72z"/>
			<path id="XMLID_34_" class="st2" d="M77.6,72c9.3,10.2,11.8,24.2,7.9,36.5C76.8,98.9,73.4,85.2,77.6,72z"/>
			<path id="XMLID_35_" class="st2" d="M113.1,83.4c-12.6,2.7-26.3-1.2-35.5-11.4C91.1,69.1,104.5,73.9,113.1,83.4z"/>
			<path id="XMLID_36_" class="st2" d="M77.6,72c4.2-13.2,15.1-22.3,27.7-25.1C101.3,59.2,91.1,69.1,77.6,72z"/>
			<path id="XMLID_31_" class="st2" d="M77.6,72c-9.3-10.2-11.8-24.2-7.9-36.5C78.4,45,81.8,58.8,77.6,72z"/>
			<path id="XMLID_32_" class="st2" d="M113.1,83.4c-12.6,2.7-26.3-1.2-35.5-11.4C91.1,69.1,104.5,73.9,113.1,83.4z"/>
			<path id="XMLID_33_" class="st2" d="M77.6,72c4.2-13.2,15.1-22.3,27.7-25.1C101.3,59.2,91.1,69.1,77.6,72z"/>
			<path id="XMLID_24_" class="st2" d="M77.6,72C64.1,74.9,50.7,70.1,42,60.5C54.6,57.8,68.3,61.7,77.6,72z"/>
			<path id="XMLID_26_" class="st2" d="M77.6,72c-9.3-10.2-11.8-24.2-7.9-36.5C78.4,45,81.8,58.8,77.6,72z"/>
			<path id="XMLID_27_" class="st2" d="M105.3,46.9C101.3,59.2,91.1,69.1,77.6,72C81.8,58.8,92.7,49.7,105.3,46.9z"/>
			<path id="XMLID_22_" class="st2" d="M77.6,72c-4.2,13.2-15.1,22.3-27.7,25.1C53.9,84.8,64.1,74.9,77.6,72z"/>
			<path id="XMLID_20_" class="st2" d="M77.6,72C64.1,74.9,50.7,70.1,42,60.5C54.6,57.8,68.3,61.7,77.6,72z"/>
			<path id="XMLID_18_" class="st2" d="M77.6,72c-9.3-10.2-11.8-24.2-7.9-36.5C78.4,45,81.8,58.8,77.6,72z"/>
			<path id="XMLID_9_" class="st2" d="M77.6,72C64.1,74.9,50.7,70.1,42,60.5C54.6,57.8,68.3,61.7,77.6,72z"/>
			<path id="XMLID_16_" class="st2" d="M77.6,72c-4.2,13.2-15.1,22.3-27.7,25.1C53.9,84.8,64.1,74.9,77.6,72z"/>
			<path id="XMLID_17_" class="st2" d="M85.5,108.5c-8.7-9.6-12.1-23.4-7.9-36.5C86.9,82.2,89.4,96.2,85.5,108.5z"/>
		</g>
		<g id="XMLID_2_">
			<path id="XMLID_40_" class="st3" d="M67.6,73.6c3.3,1.3,7.1,0.8,10-1.6C74.1,70.6,70.3,71.4,67.6,73.6z M67.6,73.6
				c3.3,1.3,7.1,0.8,10-1.6C74.1,70.6,70.3,71.4,67.6,73.6z M81.2,62.5c-2.7,2.2-4.2,5.7-3.7,9.5C80.5,69.6,81.8,66,81.2,62.5z
				 M77.6,72c3.5,1.4,7.3,0.6,10-1.6C84.3,69.2,80.5,69.6,77.6,72z M71.2,64.1c0.5,3.5,2.9,6.5,6.4,7.9C77,68.3,74.5,65.4,71.2,64.1
				z M84,79.9c-0.5-3.5-2.9-6.5-6.4-7.9C78.2,75.7,80.7,78.6,84,79.9z M67.6,73.6c3.3,1.3,7.1,0.8,10-1.6
				C74.1,70.6,70.3,71.4,67.6,73.6z M73.9,81.4c2.7-2.2,4.2-5.7,3.7-9.5C74.7,74.3,73.4,78,73.9,81.4z"/>
			<path id="XMLID_28_" class="st3" d="M77.6,72c0.6,3.7-0.9,7.3-3.7,9.5C73.4,78,74.7,74.3,77.6,72z"/>
			<path id="XMLID_25_" class="st3" d="M77.6,72c3.5,1.4,5.8,4.4,6.4,7.9C80.7,78.6,78.2,75.7,77.6,72z"/>
			<path id="XMLID_23_" class="st3" d="M77.6,72c2.9-2.4,6.7-2.8,10-1.6C84.9,72.6,81.1,73.4,77.6,72z"/>
			<path id="XMLID_21_" class="st3" d="M77.6,72c3.5,1.4,5.8,4.4,6.4,7.9C80.7,78.6,78.2,75.7,77.6,72z"/>
			<path id="XMLID_19_" class="st3" d="M87.6,70.4c-2.7,2.2-6.5,2.9-10,1.6C80.5,69.6,84.3,69.2,87.6,70.4z"/>
			<path id="XMLID_15_" class="st3" d="M77.6,72c-0.6-3.7,0.9-7.3,3.7-9.5C81.8,66,80.5,69.6,77.6,72z"/>
			<path id="XMLID_14_" class="st3" d="M77.6,72c-3.5-1.4-5.8-4.4-6.4-7.9C74.5,65.4,77,68.3,77.6,72z"/>
			<path id="XMLID_13_" class="st3" d="M87.6,70.4c-2.7,2.2-6.5,2.9-10,1.6C80.5,69.6,84.3,69.2,87.6,70.4z"/>
			<path id="XMLID_12_" class="st3" d="M77.6,72c-0.6-3.7,0.9-7.3,3.7-9.5C81.8,66,80.5,69.6,77.6,72z"/>
			<path id="XMLID_11_" class="st3" d="M77.6,72c-2.9,2.4-6.8,2.8-10,1.6C70.3,71.4,74.1,70.6,77.6,72z"/>
			<path id="XMLID_10_" class="st3" d="M77.6,72c-3.5-1.4-5.8-4.4-6.4-7.9C74.5,65.4,77,68.3,77.6,72z"/>
			<path id="XMLID_8_" class="st3" d="M81.2,62.5c0.5,3.5-0.7,7.1-3.7,9.5C77,68.3,78.5,64.7,81.2,62.5z"/>
			<path id="XMLID_7_" class="st3" d="M77.6,72c0.6,3.7-0.9,7.3-3.7,9.5C73.4,78,74.7,74.3,77.6,72z"/>
			<path id="XMLID_6_" class="st3" d="M77.6,72c-2.9,2.4-6.8,2.8-10,1.6C70.3,71.4,74.1,70.6,77.6,72z"/>
			<path id="XMLID_5_" class="st3" d="M77.6,72c-3.5-1.4-5.8-4.4-6.4-7.9C74.5,65.4,77,68.3,77.6,72z"/>
			<path id="XMLID_4_" class="st3" d="M77.6,72c-2.9,2.4-6.8,2.8-10,1.6C70.3,71.4,74.1,70.6,77.6,72z"/>
			<path id="XMLID_3_" class="st3" d="M77.6,72c0.6,3.7-0.9,7.3-3.7,9.5C73.4,78,74.7,74.3,77.6,72z"/>
			<path id="XMLID_57_" class="st3" d="M84,79.9c-3.3-1.3-5.8-4.2-6.4-7.9C81.1,73.3,83.4,76.4,84,79.9z"/>
		</g>
		<g id="XMLID_58_">
			<path id="XMLID_77_" class="st4" d="M73,70.7c1.2,1.1,3,1.5,4.7,1C76.4,70.5,74.6,70.2,73,70.7z M73,70.7c1.2,1.1,3,1.5,4.7,1
				C76.4,70.5,74.6,70.2,73,70.7z M80.9,68.1c-1.6,0.5-2.8,1.9-3.2,3.6C79.4,71.1,80.6,69.7,80.9,68.1z M77.7,71.7
				c1.3,1.2,3.1,1.5,4.7,1C81.2,71.5,79.4,71.1,77.7,71.7z M76.2,67.1c-0.3,1.6,0.2,3.4,1.5,4.5C78.1,69.9,77.5,68.2,76.2,67.1z
				 M79.3,76.2c0.3-1.6-0.2-3.4-1.5-4.5C77.4,73.4,78,75.1,79.3,76.2z M73,70.7c1.2,1.1,3,1.5,4.7,1C76.4,70.5,74.6,70.2,73,70.7z
				 M74.6,75.3c1.6-0.5,2.8-1.9,3.2-3.6C76.1,72.2,74.9,73.6,74.6,75.3z"/>
			<path id="XMLID_76_" class="st4" d="M77.7,71.7c-0.4,1.7-1.6,3.1-3.2,3.6C74.9,73.6,76.1,72.2,77.7,71.7z"/>
			<path id="XMLID_75_" class="st4" d="M77.7,71.7c1.3,1.2,1.9,2.9,1.5,4.5C78,75.1,77.4,73.4,77.7,71.7z"/>
			<path id="XMLID_74_" class="st4" d="M77.7,71.7c1.7-0.6,3.5-0.1,4.7,1C80.9,73.1,79.1,72.8,77.7,71.7z"/>
			<path id="XMLID_73_" class="st4" d="M77.7,71.7c1.3,1.2,1.9,2.9,1.5,4.5C78,75.1,77.4,73.4,77.7,71.7z"/>
			<path id="XMLID_72_" class="st4" d="M82.4,72.6c-1.6,0.5-3.4,0.2-4.7-1C79.4,71.1,81.2,71.5,82.4,72.6z"/>
			<path id="XMLID_71_" class="st4" d="M77.7,71.7c0.4-1.7,1.6-3.1,3.2-3.6C80.6,69.7,79.4,71.1,77.7,71.7z"/>
			<path id="XMLID_70_" class="st4" d="M77.7,71.7c-1.3-1.2-1.9-2.9-1.5-4.5C77.5,68.2,78.1,69.9,77.7,71.7z"/>
			<path id="XMLID_69_" class="st4" d="M82.4,72.6c-1.6,0.5-3.4,0.2-4.7-1C79.4,71.1,81.2,71.5,82.4,72.6z"/>
			<path id="XMLID_68_" class="st4" d="M77.7,71.7c0.4-1.7,1.6-3.1,3.2-3.6C80.6,69.7,79.4,71.1,77.7,71.7z"/>
			<path id="XMLID_67_" class="st4" d="M77.7,71.7c-1.7,0.6-3.5,0.1-4.7-1C74.6,70.2,76.4,70.5,77.7,71.7z"/>
			<path id="XMLID_66_" class="st4" d="M77.7,71.7c-1.3-1.2-1.9-2.9-1.5-4.5C77.5,68.2,78.1,69.9,77.7,71.7z"/>
			<path id="XMLID_65_" class="st4" d="M80.9,68.1c-0.3,1.6-1.5,3-3.2,3.6C78.1,69.9,79.3,68.6,80.9,68.1z"/>
			<path id="XMLID_64_" class="st4" d="M77.7,71.7c-0.4,1.7-1.6,3.1-3.2,3.6C74.9,73.6,76.1,72.2,77.7,71.7z"/>
			<path id="XMLID_63_" class="st4" d="M77.7,71.7c-1.7,0.6-3.5,0.1-4.7-1C74.6,70.2,76.4,70.5,77.7,71.7z"/>
			<path id="XMLID_62_" class="st4" d="M77.7,71.7c-1.3-1.2-1.9-2.9-1.5-4.5C77.5,68.2,78.1,69.9,77.7,71.7z"/>
			<path id="XMLID_61_" class="st4" d="M77.7,71.7c-1.7,0.6-3.5,0.1-4.7-1C74.6,70.2,76.4,70.5,77.7,71.7z"/>
			<path id="XMLID_60_" class="st4" d="M77.7,71.7c-0.4,1.7-1.6,3.1-3.2,3.6C74.9,73.6,76.1,72.2,77.7,71.7z"/>
			<path id="XMLID_59_" class="st4" d="M79.3,76.2c-1.2-1.1-1.9-2.8-1.5-4.5C79.1,72.8,79.6,74.6,79.3,76.2z"/>
		</g>
	</g>
</g>
<g id="Layer_3" class="st5">
	<circle id="XMLID_1_" class="st6" cx="75" cy="75" r="75"/>
</g>
</svg>
